<?xml version="1.0" encoding="UTF-8"?>
<svg id="Layer_1" xmlns="http://www.w3.org/2000/svg" version="1.1" viewBox="0 0 1488 559.6">
  <!-- Generator: Adobe Illustrator 29.7.1, SVG Export Plug-In . SVG Version: 2.1.1 Build 8)  -->
  <defs>
    <style>
      .st0 {
        fill: #392e1c;
      }
    </style>
  </defs>
  <g>
    <path class="st0" d="M457.6,437.6v-32.5h20.4v4.9h-15.4v8.9h13.4v4.8h-13.4v13.9h-5.1Z"/>
    <path class="st0" d="M504.8,437.6l-7.9-12.8h-4.3v12.8h-5.1v-32.5h11.5c3.4,0,6,1,7.8,2.9,1.8,1.9,2.7,4.3,2.7,7,0,4.3-2.6,8.1-7.3,9.4l8.7,13.2h-6.1ZM492.6,409.9v10.2h5.6c4.1,0,6.1-2.2,6.1-5.2s-1.9-5.1-5.3-5.1h-6.4Z"/>
    <path class="st0" d="M523,433.3c-3.2-3.2-4.8-7.2-4.8-11.8s1.6-8.7,4.9-12c3.3-3.3,7.3-5,11.9-5s8.7,1.6,12,4.9c3.3,3.3,4.9,7.3,4.9,11.9s-1.6,8.6-4.9,11.9c-3.3,3.3-7.3,4.9-12.1,4.9s-8.7-1.6-11.9-4.8ZM543.3,429.8c2.2-2.2,3.4-5.1,3.4-8.4s-1.1-6.2-3.4-8.5-5-3.4-8.2-3.4-6,1.1-8.2,3.4c-2.2,2.2-3.3,5.1-3.3,8.4s1.1,6.1,3.3,8.4c2.2,2.2,5,3.4,8.3,3.4s6-1.1,8.2-3.3Z"/>
    <path class="st0" d="M562.2,437.6v-32.5h2.8l13.6,19.9,13.5-19.9h2.9v32.5h-5.1v-20.8l-10.6,15.5h-1.5l-10.6-15.5v20.8h-5Z"/>
    <path class="st0" d="M625.2,433.3c-3.2-3.2-4.8-7.2-4.8-11.8s1.6-8.7,4.9-12c3.3-3.3,7.3-5,11.9-5s8.7,1.6,12,4.9,4.9,7.3,4.9,11.9-1.6,8.6-4.9,11.9-7.3,4.9-12.1,4.9-8.7-1.6-11.9-4.8ZM645.5,429.8c2.2-2.2,3.4-5.1,3.4-8.4s-1.1-6.2-3.4-8.5-5-3.4-8.2-3.4-6,1.1-8.2,3.4c-2.2,2.2-3.3,5.1-3.3,8.4s1.1,6.1,3.3,8.4c2.2,2.2,5,3.4,8.3,3.4s6-1.1,8.2-3.3Z"/>
    <path class="st0" d="M667.4,435.1c-2.2-2.1-3.3-5-3.3-8.7v-21.2h5.1v20.6c0,4.9,2.6,7.5,7,7.5s6.9-2.8,6.9-7.5v-20.6h5.1v21.2c0,3.7-1.1,6.7-3.3,8.7-2.2,2.1-5.1,3.1-8.7,3.1s-6.5-1.1-8.7-3.1Z"/>
    <path class="st0" d="M717.4,437.6l-7.9-12.8h-4.3v12.8h-5.1v-32.5h11.5c3.4,0,6,1,7.8,2.9,1.8,1.9,2.7,4.3,2.7,7,0,4.3-2.6,8.1-7.3,9.4l8.7,13.2h-6.1ZM705.2,409.9v10.2h5.6c4.1,0,6.1-2.2,6.1-5.2s-1.9-5.1-5.3-5.1h-6.4Z"/>
    <path class="st0" d="M751.2,433.4c-3.2-3.1-4.8-7.1-4.8-12s1.6-9,4.9-12.1c3.3-3.2,7.3-4.8,11.9-4.8s5.6.7,8.1,1.9c2.5,1.3,4.4,2.9,5.8,5.1l-3.6,3.3c-2.7-3.6-6.1-5.3-10.2-5.3s-6.1,1.1-8.4,3.4c-2.2,2.3-3.4,5.1-3.4,8.6s1.1,6.2,3.3,8.4c2.2,2.2,5,3.3,8.4,3.3s7.8-1.8,10.5-5.3l3.6,3.2c-3,4.2-8.3,7-14.3,7s-8.7-1.5-11.9-4.7Z"/>
    <path class="st0" d="M804.1,437.6l-7.9-12.8h-4.3v12.8h-5.1v-32.5h11.5c3.4,0,6,1,7.8,2.9,1.8,1.9,2.7,4.3,2.7,7,0,4.3-2.6,8.1-7.3,9.4l8.7,13.2h-6.1ZM791.9,409.9v10.2h5.6c4.1,0,6.1-2.2,6.1-5.2s-1.9-5.1-5.3-5.1h-6.4Z"/>
    <path class="st0" d="M839.9,437.6l-3.1-8h-12l-3.1,8h-5.5l12.9-32.5h3.3l12.8,32.5h-5.5ZM830.9,413.2l-4.4,11.8h8.8l-4.4-11.8Z"/>
    <path class="st0" d="M854.2,437.6v-32.5h20.4v4.9h-15.4v8.9h13.4v4.8h-13.4v13.9h-5.1Z"/>
    <path class="st0" d="M890.4,410h-9.5v-4.9h24.1v4.9h-9.5v27.6h-5.1v-27.6Z"/>
    <path class="st0" d="M932.4,410h-9.5v-4.9h24.1v4.9h-9.5v27.6h-5.1v-27.6Z"/>
    <path class="st0" d="M957.3,433.3c-3.2-3.2-4.8-7.2-4.8-11.8s1.6-8.7,4.9-12c3.3-3.3,7.3-5,11.9-5s8.7,1.6,12,4.9,4.9,7.3,4.9,11.9-1.6,8.6-4.9,11.9-7.3,4.9-12.1,4.9-8.7-1.6-11.9-4.8ZM977.6,429.8c2.2-2.2,3.4-5.1,3.4-8.4s-1.1-6.2-3.4-8.5-5-3.4-8.2-3.4-6,1.1-8.2,3.4c-2.2,2.2-3.3,5.1-3.3,8.4s1.1,6.1,3.3,8.4c2.2,2.2,5,3.4,8.3,3.4s6-1.1,8.2-3.3Z"/>
    <path class="st0" d="M1034.6,405.1l-11.2,20.9v11.6h-5.1v-11.6l-11-20.9h5.7l7.9,15.7,8-15.7h5.7Z"/>
    <path class="st0" d="M1044.4,433.3c-3.2-3.2-4.8-7.2-4.8-11.8s1.6-8.7,4.9-12c3.3-3.3,7.3-5,11.9-5s8.7,1.6,12,4.9c3.3,3.3,4.9,7.3,4.9,11.9s-1.6,8.6-4.9,11.9-7.3,4.9-12.1,4.9-8.7-1.6-11.9-4.8ZM1064.7,429.8c2.2-2.2,3.4-5.1,3.4-8.4s-1.1-6.2-3.4-8.5c-2.2-2.2-5-3.4-8.2-3.4s-6,1.1-8.2,3.4c-2.2,2.2-3.3,5.1-3.3,8.4s1.1,6.1,3.3,8.4c2.2,2.2,5,3.4,8.3,3.4s6-1.1,8.2-3.3Z"/>
    <path class="st0" d="M1086.6,435.1c-2.2-2.1-3.3-5-3.3-8.7v-21.2h5.1v20.6c0,4.9,2.6,7.5,7,7.5s6.9-2.8,6.9-7.5v-20.6h5.1v21.2c0,3.7-1.1,6.7-3.3,8.7-2.2,2.1-5.1,3.1-8.7,3.1s-6.5-1.1-8.7-3.1Z"/>
    <path class="st0" d="M1134.6,437.6v-32.5h12.3c4.7,0,8.4,1.5,11.1,4.4,2.7,2.9,4.1,6.9,4.1,11.9s-1.4,8.9-4.2,11.8-6.6,4.4-11.4,4.4h-11.9ZM1139.6,432.8h7c3.2,0,5.6-1.1,7.4-3.2,1.8-2.2,2.7-4.9,2.7-8.3s-.9-6-2.7-8.1c-1.8-2.2-4.2-3.2-7.3-3.2h-7.1v22.8Z"/>
    <path class="st0" d="M1172.5,437.6v-32.5h20.8v4.8h-15.7v8.8h14.6v4.8h-14.6v9.3h15.7v4.8h-20.8Z"/>
    <path class="st0" d="M1204,437.6v-32.5h5.1v27.6h17.1v4.9h-22.2Z"/>
    <path class="st0" d="M1235.2,405.1h5.1v32.5h-5.1v-32.5Z"/>
    <path class="st0" d="M1255.3,433.4c-3.2-3.2-4.7-7.2-4.7-12s1.6-8.9,4.9-12c3.3-3.2,7.3-4.8,12-4.8s10.5,2.3,13.4,5.8l-3.5,3.4c-2.6-2.9-5.9-4.3-9.9-4.3s-6.2,1.1-8.4,3.4-3.4,5.1-3.4,8.5,1.1,6.2,3.3,8.5,5,3.3,8.4,3.3,7.4-1.6,9.9-4.2v-5.8h-10.2v-4.6h14.9v12.8c-4,4.5-9,6.7-14.7,6.7s-8.8-1.6-12-4.7Z"/>
    <path class="st0" d="M1292.6,437.6v-32.5h5.1v13.5h15.5v-13.5h5.1v32.5h-5.1v-14.1h-15.5v14.1h-5.1Z"/>
    <path class="st0" d="M1336.7,410h-9.5v-4.9h24.1v4.9h-9.5v27.6h-5.1v-27.6Z"/>
  </g>
  <g>
    <path class="st0" d="M274,190.7c-2.1-1.3-4.3-2.6-6.5-3.7-2-1.1-3.9-2.2-6-3.1.1,1.6,0,3.1-.2,4.8,2.1.9,4.1,1.9,6.1,2.9,2.2,1.1,4.4,2.3,6.5,3.6,6,3.6,11.7,7.7,16.8,12.4l2.1-2.1c-5.7-5.6-12.1-10.5-18.8-14.7ZM254.9,184v-.3c0-.9,0-1.7,0-2.6-11.7-4.5-24.1-7.1-36.7-7.5-1.9,0-3.8,0-5.6,0-12.2.2-24.5,2.5-36.3,7-2.2.9-4.4,1.8-6.6,2.8-1.8.8-3.5,1.8-5.3,2.7,0,2.2.1,4.3.3,6.6,0,1.1-.1,2.4-.1,3.5,1.9-1.3,3.8-2.5,5.8-3.5h0c2.1-1.3,4.1-2.3,6.2-3.3,11.6-5.5,23.9-8.5,36.2-9.3,1.7-.1,3.4-.2,5.1-.2,12.6-.2,25.1,2,36.9,6.2,0-.7,0-1.3,0-1.8v-.3ZM266,376.2c-1,.5-2.2,1.1-3.3,1.7-2.1,1-4.2,1.9-6.4,2.7-11.9,4.6-24.7,7-38,6.6-.1,0-.3,0-.4,0-1.6,0-3.2,0-4.8,0-13-.6-24.9-3.5-35.7-8.4,0,.5,0,1-.1,1.5v.2c0,.8,0,1.6,0,2.4,11.6,4.6,23.7,6.9,35.7,7.2,1.7,0,3.4,0,5,0,13.2-.3,26.2-2.9,38.3-7.7,2.2-.9,4.3-1.8,6.4-2.8,1.1-.5,2.2-1,3.3-1.7.1-.6,0-1.1-.1-1.8ZM292,357.4c-5.9,5.8-12.4,10.9-19.5,15.1,0,.3,0,.5,0,.8,0,.4,0,.8,0,1.1,7.5-4.4,14.5-9.6,20.8-15.7l-1.3-1.3ZM163.9,371.2c-2.3-1.6-4.5-3.2-6.7-4.9-4.7-3.8-9-8-12.9-12.4-33.2-38.3-37.4-101,2-142.2.2-.2.3-.3.5-.5,3.6-3.8,7.3-7.1,11.2-10.1,0-1.6.1-3.2.1-4.9,0-.7,0-1.3,0-2,0-.4,0-.8,0-1.2,0-1.1-.2-2.1-.2-3.1-6.3,4-12.4,8.8-18.1,14.3l-.5.5c-43.3,40.3-43.3,114.1.5,153.6.4.5.9.9,1.4,1.3,5.1,5,10.5,9.3,16.1,12.9,2.1,1.4,4.2,2.7,6.4,3.8,2.3,1.3,4.7,2.6,7,3.6.1-1.4.2-3,.4-4.4-2.5-1.3-5-2.8-7.3-4.3Z"/>
    <path class="st0" d="M259.7,325.1c.8,16.1,1.9,32.3,2.5,48.4.2,1.4.4,2.9.5,4.3.1.6.1,1.1.1,1.8,2,29.4-15.4,52.8-47,52.6-30.4-.7-46.3-24.3-45.1-52.2.1-1.4.2-3,.4-4.4,0-.7.1-1.3.2-2.1.3-15.9.7-32,1.1-47.9.3-14.2.5-28.3.5-42.5-.1-15.2-.5-30.4-.9-45.6-.6-15-1.2-29.9-1.7-44.8h0c-.4-3.2-.7-6.3-.7-9.3-.2-27.4,15.9-50.8,46.1-51.6,30.3.9,46.2,24.6,45.6,52,.1,1.6,0,3.1-.2,4.8,0,1.3-.2,2.8-.4,4.1-.4,15.4-1,30.7-1.5,46.1l9.2-9.2c-.4-12.3-.9-24.6-1.2-36.9,0-.4.1-.8.1-1.2.1-1.6.2-3,.1-4.6.7-31-17.5-59-51.6-59.2-33.6.3-51.6,27.8-51.4,58.3,0,2.2.1,4.3.3,6.6,0,1.1-.1,2.4-.1,3.5-.3,10.9-.8,21.8-1.1,32.7-.7,18-1.2,36.1-1.3,54.2-.1,17.4.3,34.8.7,52.1.4,12,.7,24,.9,36,.1.7.1,1.5.1,2.3-.1.9-.2,1.9-.2,2.9-2.1,32.2,16.4,64,52.1,64,34.2-.9,51.2-32,50.3-62.5.1-.6,0-1.1-.1-1.8,0-.9,0-1.8-.1-2.7.5-13.3,1.3-26.8,2.1-40.1l-8.3-8.3Z"/>
    <path class="st0" d="M213.1,186.7c1.5-.1,3.1-.2,4.7-.2-.2,6.6-.5,13.3-.7,19.9-.4,20.7-.9,41.5-.8,62.2,0,6.8.1,13.5.3,20.3h0c0,2.8.1,5.6.2,8.4h-2.7c.2-4.7.3-9.4.3-14.2h0c0-4.9.1-9.7.1-14.6,0-20.7-.4-41.5-.8-62.2-.2-6.6-.5-13.1-.7-19.7Z"/>
    <path class="st0" d="M221.7,115.4c-1.5,17.2-2.4,34.4-3.1,51.6,0,2.2-.2,4.4-.3,6.6,0,2.1-.2,4.2-.2,6.3-1.7,0-3.4,0-5.1.2,0-2.2-.2-4.4-.3-6.5,0-2.2-.2-4.4-.3-6.6-.7-17.2-1.7-34.4-3.1-51.6h12.5Z"/>
    <rect class="st0" x="202.3" y="268.5" width="26.2" height="26.2" transform="translate(262.2 -69.8) rotate(45)"/>
    <path class="st0" d="M213,390c0-1,0-2,.1-3,0-2.2.2-4.4.2-6.6,1-27.7,1.4-55.4,1.2-83.2,0-4.7,0-9.4-.1-14.2,0-4.9-.2-9.7-.3-14.6h2.7c-.1,6.8-.3,13.6-.3,20.3,0,2.8,0,5.6,0,8.4-.2,27.8.2,55.5,1.2,83.3,0,2.2.2,4.4.2,6.6,0,1,0,1.9.1,2.9-1.7,0-3.4,0-5,0Z"/>
    <path class="st0" d="M221.8,456.2h-12.5c1.4-19.9,2.6-39.7,3.4-59.6,1,0,2.1,0,3.1,0s1.7,0,2.5,0c.9,19.9,2,39.7,3.4,59.6Z"/>
  </g>
  <g>
    <path class="st0" d="M313.6,277.9c0-40.6,32.1-74.1,81.3-74.1s35.5,2.8,46,9.8l.8,26.5-2.4.6c-8.2-20.7-28.9-33.1-49.6-33.1-32.1,0-54.8,21.3-54.8,61.2s22.9,74.7,62,74.7,38-13.7,45.2-34.5l2.6.4-3.2,28.7c-10.6,4.8-25.9,9.6-50.4,9.6-48,0-77.5-24.9-77.5-69.9Z"/>
    <path class="st0" d="M457.6,343c6.6-2.2,8-8.2,8-22.7v-106.4c0-11.8-3-13.9-8-16.1v-2.8l26.5-11.6,2,1.6v77.1c11-9,25.5-18.1,41.2-18.1s30.9,9.6,30.9,33.1v43.2c0,14.5,1.4,20.5,8,22.7v2.8h-36.5v-2.8c6.6-2.2,8-8.2,8-22.7v-39.6c0-18.1-7.8-28.7-22.7-28.7s-18.1,4.6-28.9,13.5v54.8c0,14.5,1.4,20.5,8,22.7v2.8h-36.5v-2.8Z"/>
    <path class="st0" d="M576.4,299.4c0-34.1,26.7-55.4,52.8-55.4s41.6,18.7,41.6,36.1h-76.1c-.2,2.2-.4,4.2-.4,6.4,0,26.3,16.1,45,41.6,45s26.3-6.4,34.7-15.9l1.8,2c-9.2,14.1-25.1,30.1-48.4,30.1s-47.6-15.9-47.6-48.4ZM650.5,277.3c-2.6-16.5-13.7-29.5-27.5-29.7-17.1-.2-25.7,14.1-28.1,29.7h55.6Z"/>
    <path class="st0" d="M684.5,343c6.6-2.2,8-8.2,8-22.7v-69.1h-11.6l1-3.2h10.6c1.4-29.5,32.1-59,65.9-59s14.3,1.6,14.3,5.6-6,13.5-15.1,13.5-19.1-2.6-31.5-7.4c-5.6,3-13.1,8.4-13.1,29.1v18.3h25.1l-1,3.2h-24.1v69.1c0,14.5,1.4,20.5,8,22.7v2.8h-36.5v-2.8Z"/>
    <path class="st0" d="M791.7,277.9c0-40.6,32.1-74.1,81.3-74.1s35.5,2.8,46,9.8l.8,26.5-2.4.6c-8.2-20.7-28.9-33.1-49.6-33.1-32.1,0-54.8,21.3-54.8,61.2s22.9,74.7,62,74.7,37.9-13.7,45.2-34.5l2.6.4-3.2,28.7c-10.6,4.8-25.9,9.6-50.4,9.6-48,0-77.5-24.9-77.5-69.9Z"/>
    <path class="st0" d="M937.9,299.4c0-34.1,26.7-55.4,52.8-55.4s41.6,18.7,41.6,36.1h-76.1c-.2,2.2-.4,4.2-.4,6.4,0,26.3,16.1,45,41.6,45s26.3-6.4,34.7-15.9l1.8,2c-9.2,14.1-25.1,30.1-48.4,30.1s-47.6-15.9-47.6-48.4ZM1012,277.3c-2.6-16.5-13.7-29.5-27.5-29.7-17.1-.2-25.7,14.1-28.1,29.7h55.6Z"/>
    <path class="st0" d="M1062.4,332.8l-8.2,13.1h-2.2v-131.9c0-11.8-3-13.9-8-16.1v-2.8l26.5-11.6,2,1.6v70.9c10-6.4,21.9-11.8,33.3-11.8,28.5,0,45.8,23.5,45.8,48.4s-21.1,55.2-54.4,55.2-27.3-6.4-34.7-14.9ZM1104.9,343.4c21.3,0,26.9-17.5,26.9-35.7s-8.4-55.6-38.4-55.6-14.5,2.8-21.1,7v51.4c0,15.7,17.3,32.9,32.5,32.9Z"/>
    <path class="st0" d="M1164,299.4c0-34.1,26.7-55.4,52.8-55.4s41.6,18.7,41.6,36.1h-76.1c-.2,2.2-.4,4.2-.4,6.4,0,26.3,16.1,45,41.6,45s26.3-6.4,34.7-15.9l1.8,2c-9.2,14.1-25.1,30.1-48.4,30.1s-47.6-15.9-47.6-48.4ZM1238.1,277.3c-2.6-16.5-13.7-29.5-27.5-29.7-17.1-.2-25.7,14.1-28.1,29.7h55.6Z"/>
    <path class="st0" d="M1270.6,343c6.6-2.2,8-8.2,8-22.7v-46.2c0-11.8-3-13.9-8-16.1v-2.8l26.5-11.6,2,1.6v24.3c3-7,8.2-13.3,14.7-17.7,7.4-5.2,15.1-7.8,24.7-7.8s12.9,1.8,12.9,6-4.4,13.1-13.7,13.1-13.3-2-26.1-6c-5,4.2-11.8,13.3-12.4,23.3v40c0,14.5,1.4,20.5,8,22.7v2.8h-36.5v-2.8Z"/>
  </g>
</svg>